PathFileType	4	(X/Y/Z)	C:\Users\chris\Documents\GitHub\baseballds\vids\pitch5_Sports2D\pitch5_Sports2D_m_person05.trc
DataRate	CameraRate	NumFrames	NumMarkers	Units	OrigDataRate	OrigDataStartFrame	OrigNumFrames
30	30	8	22	m	30	111	149
Frame#	Time	Hip			RHip			RKnee			RAnkle			RBigToe			RSmallToe			RHeel			LHip			LKnee			LAnkle			LBigToe			LSmallToe			LHeel			Neck			Head			Nose			RShoulder			RElbow			RWrist			LShoulder			LElbow			LWrist		
		X1	Y1	Z1	X2	Y2	Z2	X3	Y3	Z3	X4	Y4	Z4	X5	Y5	Z5	X6	Y6	Z6	X7	Y7	Z7	X8	Y8	Z8	X9	Y9	Z9	X10	Y10	Z10	X11	Y11	Z11	X12	Y12	Z12	X13	Y13	Z13	X14	Y14	Z14	X15	Y15	Z15	X16	Y16	Z16	X17	Y17	Z17	X18	Y18	Z18	X19	Y19	Z19	X20	Y20	Z20	X21	Y21	Z21	X22	Y22	Z22
111	3.6999999999999997	2.9808389695783033	1.2470321149648633	0.0	2.9835956858459904	1.2448782518356976	0.0	3.0015280988443656	1.2208438272358793	0.0	2.9719410664773505	1.2275252677737514	0.0	2.9691957883606963	1.2204982224064693	0.0	2.969464092878627	1.2222325477030291	0.0	2.9686347515517917	1.233045512247051	0.0	2.97707961132942	1.2449495638941313	0.0	2.9926990722407663	1.221838639792767	0.0	2.966795881812073	1.228165503884393	0.0	2.96415357963968	1.2192991056838454	0.0	2.9697850493207016	1.221689503352565	0.0	2.965200129210568	1.2309422893671542	0.0	2.9856652310995755	1.2856245131241903	0.0	2.9879628448043736	1.305493584384088	0.0	2.992245623649692	1.2970501064561828	0.0	2.987951379207535	1.2813116540677112	0.0	2.9974489824938675	1.2628320517829201	0.0	3.0052043830742865	1.2514275371140748	0.0	2.9798787626263583	1.2802502466662966	0.0	2.974279652126898	1.2638610715283518	0.0	3.0178835040984633	1.2668450594510157	0.0
112	3.7333333333333334	2.9802876455764293	1.2469179815867455	0.0	2.98306889135611	1.244751775060808	0.0	3.0013383011309207	1.2209082408350402	0.0	2.971729222658604	1.2274686471178704	0.0	2.9690849659959473	1.2204792250741467	0.0	2.9694642457459484	1.2222324674626974	0.0	2.9684614655103165	1.2330061434715751	0.0	2.9764885754038755	1.2448170463845039	0.0	2.9923091245899585	1.2218427311627302	0.0	2.9663968634447127	1.228155615414677	0.0	2.963885600651463	1.219344897366089	0.0	2.9697853628049615	1.2216898177616977	0.0	2.964909708874953	1.2309317166913964	0.0	2.98522877433127	1.2855015852728655	0.0	2.9875211157878665	1.3052924196318905	0.0	2.991774643676416	1.2969661732259636	0.0	2.9876533175909246	1.2812217671932007	0.0	2.997385509572514	1.2627826765020582	0.0	3.0046935302008135	1.2509011143446997	0.0	2.9792731771390386	1.2801089337085894	0.0	2.97325324149462	1.2637160719966616	0.0	3.017883966279303	1.266845493634955	0.0
113	3.7666666666666666	2.9802610639583187	1.2469124409963726	0.0	2.9830434517009667	1.244745634375661	0.0	3.0013290844133906	1.2209114404832535	0.0	2.971718989387943	1.2274658655096222	0.0	2.969079498789203	1.2204785878778321	0.0	2.969464209204553	1.2222325206647429	0.0	2.9684530352918386	1.2330042486502162	0.0	2.9764599534873337	1.2448106074854974	0.0	2.9922902294538134	1.221842979120993	0.0	2.9663776801298067	1.228155131873481	0.0	2.963872437471026	1.219347305974068	0.0	2.9697852945399807	1.2216900059264226	0.0	2.9648956361384844	1.2309312967880828	0.0	2.985207718903732	1.285495640431855	0.0	2.987499776496489	1.3052827223448888	0.0	2.9917519448108454	1.2969621006427987	0.0	2.987638924331267	1.2812173954482686	0.0	2.9973823828802106	1.2627802694774963	0.0	3.004668827198551	1.2508756915110448	0.0	2.979243915752077	1.2801020184928174	0.0	2.973203522614309	1.2637090730479643	0.0	3.017884103906164	1.2668457067588024	0.0
114	3.8	2.980359199225024	1.246932742705317	0.0	2.98313720569038	1.244768131364193	0.0	3.0013628439584523	1.2209000096460414	0.0	2.971756690262613	1.2274759248433038	0.0	2.9690991792669648	1.220482072392516	0.0	2.969464165767685	1.2222325560366727	0.0	2.968483852225019	1.2330112574866754	0.0	2.9765651110265448	1.2448341771466218	0.0	2.992359605060851	1.2218422695938342	0.0	2.9664487254357277	1.2281568895095156	0.0	2.963920047812036	1.2193392292897653	0.0	2.969785207929058	1.2216900138921913	0.0	2.964947304742073	1.2309332119183505	0.0	2.9852854034399434	1.28551751485516	0.0	2.9875783885262788	1.3053185301511687	0.0	2.9918357822376955	1.2969770311571138	0.0	2.9876919707756455	1.28123338123122	0.0	2.9973936564771324	1.2627890484718325	0.0	3.0047597317823933	1.2509693789277427	0.0	2.9793516860222695	1.2801271344287901	0.0	2.9733861374562998	1.2637348799314407	0.0	3.017884064260786	1.2668457004938616	0.0
115	3.8333333333333335	2.980400667991249	1.2469413296772314	0.0	2.9831768318404066	1.2447776470600018	0.0	3.001377123812711	1.2208951590973505	0.0	2.9717726256031414	1.2274801867250986	0.0	2.9691075223072816	1.220483484789139	0.0	2.969464156871951	1.222232558689773	0.0	2.9684968906947535	1.233014218479425	0.0	2.976609574237204	1.2448441476192798	0.0	2.992388941211521	1.2218419588500002	0.0	2.966478735015777	1.2281576336891133	0.0	2.963940218694042	1.219335773090509	0.0	2.969785189291307	1.2216899799901515	0.0	2.9649691533685685	1.230934001835082	0.0	2.9853182329864185	1.2855267621467141	0.0	2.9876116163920243	1.305333660997077	0.0	2.991871207256702	1.296983345866686	0.0	2.9877143913155115	1.2812401444720183	0.0	2.997398434635318	1.2627927638838155	0.0	3.0047981607508425	1.251008977183416	0.0	2.9793972399269113	1.2801377695626444	0.0	2.9734633543779063	1.2637457867855362	0.0	3.017884022661232	1.2668456564457962	0.0
116	3.8666666666666667	2.9803967754084875	1.2469405274048373	0.0	2.983173116283449	1.2447767581062756	0.0	3.001375789960429	1.2208956050243491	0.0	2.971771131724093	1.2274797918315072	0.0	2.96910675154231	1.2204833243856328	0.0	2.9694641620903552	1.2222325527437863	0.0	2.968495674326547	1.2330139402070037	0.0	2.976605413112346	1.244843216671902	0.0	2.9923861968884076	1.2218419829582123	0.0	2.966475912589978	1.2281575645110958	0.0	2.963938349534314	1.219336077471955	0.0	2.9697851993639266	1.221689965902597	0.0	2.9649671095097827	1.2309339187183421	0.0	2.9853151525498074	1.2855258959183213	0.0	2.987608501527471	1.305332240527777	0.0	2.9918678810855823	1.2969827556954516	0.0	2.987712288991498	1.2812395134071721	0.0	2.997397992748165	1.2627924177652285	0.0	3.0047945607609	1.251005264354715	0.0	2.979392970229561	1.280136781440864	0.0	2.973456129289009	1.263744763773446	0.0	3.017884015052246	1.266845641395604	0.0
117	3.9	2.980387216756577	1.2469385494791987	0.0	2.983163983860624	1.2447745662907803	0.0	3.001372500845656	1.2208967196202316	0.0	2.9717674593048238	1.227478811364093	0.0	2.9691048330251673	1.2204829885426947	0.0	2.9694641657606233	1.2222325500270628	0.0	2.9684926717079505	1.2330132575688204	0.0	2.9765951688675076	1.24484092028615	0.0	2.992379438306634	1.2218420527153824	0.0	2.966468993279071	1.2281573932258663	0.0	2.9639337090529874	1.219336866727353	0.0	2.9697852067356005	1.221689967335412	0.0	2.964962075943639	1.2309337333263237	0.0	2.985307585703106	1.2855237650582294	0.0	2.987600843961531	1.3053287527681074	0.0	2.991859715198948	1.2969813010916684	0.0	2.9877071218312268	1.2812379558626175	0.0	2.9973968938203144	1.26279156232889	0.0	3.004785705470214	1.2509961384022081	0.0	2.9793824722891946	1.280134333776499	0.0	2.973438339134324	1.2637422500090638	0.0	3.0178840203863637	1.2668456444594491	0.0
118	3.933333333333333	2.9803844468018736	1.2469379756790655	0.0	2.9831613367448013	1.2447739304260563	0.0	3.0013715466169346	1.2208970441744122	0.0	2.9717663947703534	1.227478526380911	0.0	2.9691042750084504	1.2204828958490617	0.0	2.969464166095042	1.222232550187477	0.0	2.968491800342183	1.2330130598054352	0.0	2.97659219815221	1.2448402540028696	0.0	2.9923774782072234	1.2218420737717994	0.0	2.9664669890795783	1.2281573434774273	0.0	2.963932360278936	1.2193370987761605	0.0	2.9697852074872584	1.221689970623441	0.0	2.9649606161228066	1.2309336810944609	0.0	2.9853053927439803	1.2855231472682178	0.0	2.987598624220695	1.3053277420956324	0.0	2.9918573489968456	1.2969808791405482	0.0	2.9877056240921185	1.2812375038796757	0.0	2.997396574264836	1.262791313997201	0.0	3.004783138132467	1.2509934931431104	0.0	2.9793794290866535	1.2801336227872764	0.0	2.9734331799710523	1.2637415214261456	0.0	3.0178840238474254	1.266845648538688	0.0
